# Alias OBJ Model File
# Exported from SketchUp, (c) 2000-2012 Trimble Navigation Limited
# File units = inches

mtllib faceshield.mtl

g Mesh1 Group1 Model

usemtl Translucent_Glass_Blue
v 157.769 0.572951 -125.678
vt -3.29056 0.528625
vn -0.00123793 0.999999 9.76523e-05
v 157.613 0.572743 -125.527
vt -3.13532 0.37634
v 157.939 0.573059 -124.625
vt -2.24167 0.724991
v 158.063 0.573193 -124.43
vt -2.0501 0.853327
v 158.563 0.573735 -123.641
vt -1.27359 1.37353
v 159.385 0.574672 -122.815
vt -0.468898 2.21631
v 160.367 0.575826 -122.187
vt 0.134196 3.21335
v 161.461 0.577141 -121.786
vt 0.507082 4.31732
v 162.616 0.578556 -121.632
vt 0.632065 5.47585
v 163.777 0.580003 -121.732
vt 0.503214 6.63395
v 164.889 0.581413 -122.08
vt 0.126643 7.73667
v 165.899 0.58272 -122.661
vt -0.479778 8.73168
v 166.759 0.583862 -123.447
vt -1.28727 9.57177
v 167.41 0.584759 -124.375
vt -2.23088 10.1994
v 167.248 0.584569 -124.489
vt -2.34069 10.0342
v 166.609 0.58369 -123.579
vt -1.41518 9.4187
v 165.781 0.58259 -122.822
vt -0.637793 8.60994
v 164.809 0.581332 -122.263
vt -0.0539863 7.65203
v 163.738 0.579974 -121.927
vt 0.308542 6.59043
v 162.621 0.578581 -121.831
vt 0.432588 5.47551
v 161.509 0.577219 -121.98
vt 0.312266 4.36019
v 160.455 0.575953 -122.366
vt -0.0467145 3.29739
v 159.51 0.574842 -122.97
vt -0.627319 2.33753
v 158.719 0.57394 -123.765
vt -1.402 1.52618
v 158.23 0.57341 -124.536
vt -2.16046 1.01807
v 158.118 0.573289 -124.713
vt -2.33398 0.901824
v 157.8 0.572981 -125.594
vt -3.20739 0.56107
f 1/1/1 2/2/1 3/3/1 4/4/1 5/5/1 6/6/1 7/7/1 8/8/1 9/9/1 10/10/1 11/11/1 12/12/1 13/13/1 14/14/1 15/15/1 16/16/1 17/17/1 18/18/1 19/19/1 20/20/1 21/21/1 22/22/1 23/23/1 24/24/1 25/25/1 26/26/1 27/27/1 

vt -2.49649 6.00171
vn -0.695929 -0.000791389 -0.71811
vt -2.71395 6.0019
v 157.777 -5.42704 -125.679
vt -2.71917 0.00189729
v 157.621 -5.42725 -125.528
vt -2.50171 0.00170818
f 2/28/2 1/29/2 28/30/2 29/31/2 

vt 2.87609 5.99824
vn 0.940496 0.00119745 -0.339804
vt 2.78682 5.99828
v 157.807 -5.42701 -125.595
vt 2.78411 -0.0017239
vt 2.87338 -0.00176419
f 1/32/3 27/33/3 30/34/3 28/35/3 

vt 1.84929 5.9987
vn 0.897889 0.00115451 -0.440221
v 158.126 -5.42671 -124.713
vt 1.84658 -0.00130076
f 27/33/3 26/36/4 31/37/4 30/34/3 

vt 1.44129 5.99854
vt 1.23243 5.99868
vn 0.844599 0.00109784 -0.535399
v 158.238 -5.42659 -124.537
vt 1.22829 -0.00131625
vt 1.43714 -0.0014606
f 26/38/4 25/39/5 32/40/5 31/41/4 

vt 1.23244 5.99868
vt 0.31951 5.99931
vn 0.78126 0.0010281 -0.624205
v 158.726 -5.42606 -123.766
vt 0.315363 -0.000685289
f 25/42/5 24/43/6 33/44/6 32/40/5 

vt -0.130263 5.99965
vt -1.25206 6.00066
vn 0.627557 0.000852903 -0.77857
v 159.518 -5.42515 -122.971
vt -1.25745 0.000662027
vt -0.135652 -0.000345498
f 24/45/6 23/46/7 34/47/7 33/48/6 

vt -1.66904 6.00131
vt -2.79083 6.0025
vn 0.444075 0.00063723 -0.89599
v 160.463 -5.42404 -122.366
vt -2.7972 0.00250475
vt -1.67541 0.00131282
f 23/49/7 22/50/8 35/51/8 34/52/7 

vt -3.10199 6.00319
vt -4.22378 6.00451
vn 0.23952 0.000391319 -0.970891
v 161.516 -5.42278 -121.98
vt -4.23084 0.00451016
vt -3.10904 0.0031904
f 22/53/8 21/54/9 36/55/9 35/56/8 

vt -4.36112 6.00492
vt -5.48291 6.00631
vn 0.0235986 0.000126839 -0.999722
v 162.628 -5.42141 -121.832
vt -5.49032 0.0063111
vt -4.36853 0.00492612
f 21/57/9 20/58/10 37/59/10 36/60/9 

vt -5.38669 6.00619
vt -6.50848 6.00757
vn -0.193442 -0.000143661 -0.981112
v 163.746 -5.42002 -121.928
vt -6.51589 0.00757433
vt -5.39409 0.00618986
f 20/61/10 19/62/11 38/63/11 37/64/10 

vt -6.13003 6.00674
vt -7.25182 6.00806
vn -0.401304 -0.000407343 -0.915945
v 164.816 -5.41866 -122.263
vt -7.25887 0.0080629
vt -6.13708 0.00674463
f 19/65/11 18/66/12 39/67/12 38/68/11 

vt -6.55586 6.00649
vt -7.67765 6.00768
vn -0.590122 -0.000651695 -0.807314
v 165.789 -5.4174 -122.823
vt -7.68402 0.00768053
vt -6.56222 0.00649102
f 18/69/12 17/70/13 40/71/13 39/72/12 

vt -6.64398 6.00548
vt -7.76578 6.00649
vn -0.750937 -0.000865122 -0.660373
v 166.617 -5.41631 -123.58
vt -7.77115 0.00648992
vt -6.64936 0.00548561
f 17/73/13 16/74/14 41/75/14 40/76/13 

vt -6.39021 6.00393
vt -7.50173 6.00469
vn -0.818396 -0.000957003 -0.574653
v 167.255 -5.41543 -124.489
vt -7.50586 0.00469433
vt -6.39434 0.00392996
f 16/77/14 15/78/15 42/79/15 41/80/14 

vt -7.05262 6.00683
vn 0.574653 0.0007913 -0.818397
vt -7.25091 6.00703
v 167.418 -5.41524 -124.375
vt -7.25711 0.00703634
vt -7.05882 0.00683131
f 15/81/16 14/82/16 43/83/16 42/84/16 

vt 7.50173 6.00469
vn 0.818396 0.000957003 0.574653
vt 6.36848 6.00391
vn 0.750937 0.000865122 0.660373
v 166.767 -5.41613 -123.448
vt 6.37261 0.00391502
vt 7.50586 0.00469433
f 14/85/17 13/86/18 44/87/18 43/88/17 

vt 7.7875 6.00651
vt 6.62226 6.00546
vn 0.590122 0.000651695 0.807314
v 165.906 -5.41727 -122.662
vt 6.62763 0.00546616
vt 7.79288 0.00650937
f 13/89/18 12/90/19 45/91/19 44/92/18 

vt 7.69938 6.0077
vt 6.53414 6.00646
vn 0.401304 0.000407343 0.915945
v 164.896 -5.41858 -122.081
vt 6.5405 0.00646798
vt 7.70574 0.00770357
f 12/93/19 11/94/20 46/95/20 45/96/19 

vt 7.27355 6.00808
vt 6.1083 6.00671
vn 0.193442 0.000143661 0.981112
v 163.784 -5.41999 -121.732
vt 6.11535 0.0067191
vt 7.2806 0.00808844
f 11/97/20 10/98/21 47/99/21 46/100/20 

vt 6.53021 6.0076
vt 5.36496 6.00616
vn -0.0235986 -0.000126839 0.999722
v 162.623 -5.42144 -121.633
vt 5.37237 0.00616304
vt 6.53761 0.00760115
f 10/101/21 9/102/22 48/103/22 47/104/21 

vt 5.50464 6.00633
vt 4.33939 6.00489
vn -0.23952 -0.000391319 0.970891
v 161.468 -5.42285 -121.787
vt 4.3468 0.00489929
vt 5.51205 0.00633792
f 9/105/22 8/106/23 49/107/23 48/108/22 

vt 4.2455 6.00453
vt 3.08026 6.00316
vn -0.444075 -0.00063723 0.89599
v 160.374 -5.42417 -122.187
vt 3.08732 0.00316484
vt 4.25256 0.00453572
f 8/109/23 7/110/24 50/111/24 49/112/23 

vt 2.81255 6.00252
vt 1.64731 6.00129
vn -0.627557 -0.000852903 0.77857
v 159.393 -5.42532 -122.816
vt 1.65368 0.00128974
vt 2.81893 0.00252783
f 7/113/24 6/114/25 51/115/25 50/116/24 

vt 1.27379 6.00068
vt 0.108536 5.99963
vn -0.78126 -0.0010281 0.624205
v 158.571 -5.42626 -123.641
vt 0.113925 -0.000365011
vt 1.27917 0.00068154
f 6/117/25 5/118/26 52/119/26 51/120/25 

vt -0.297783 5.99933
vt -1.23244 5.99868
vn -0.844599 -0.00109784 0.535399
v 158.07 -5.4268 -124.431
vt -1.22829 -0.00131625
vt -0.293636 -0.000670273
f 5/121/26 4/122/27 53/123/27 52/124/26 

vt -1.23243 5.99868
vt -1.46302 5.99852
vn -0.897889 -0.00115451 0.440221
v 157.947 -5.42694 -124.625
vt -1.45887 -0.00147561
f 4/125/27 3/126/28 54/127/28 53/123/27 

vt -1.82757 5.99871
vt -2.78682 5.99828
vn -0.940496 -0.00119745 0.339803
vt -2.78411 -0.0017239
vt -1.82486 -0.00129096
f 3/128/28 2/129/29 29/130/29 54/131/28 

vt 3.13532 0.37634
vn 0.00123793 -0.999999 -9.76523e-05
vt 3.29056 0.528625
vt 3.20739 0.56107
vt 2.33398 0.901824
vt 2.16046 1.01807
vt 1.402 1.52618
vt 0.627319 2.33753
vt 0.0467145 3.29739
vt -0.312266 4.36019
vt -0.432588 5.47551
vt -0.308542 6.59043
vt 0.0539863 7.65203
vt 0.637793 8.60994
vt 1.41518 9.4187
vt 2.34069 10.0342
vt 2.23088 10.1994
vt 1.28727 9.57177
vt 0.479778 8.73168
vt -0.126643 7.73667
vt -0.503214 6.63395
vt -0.632065 5.47585
vt -0.507082 4.31732
vt -0.134196 3.21335
vt 0.468898 2.21631
vt 1.27359 1.37353
vt 2.0501 0.853327
vt 2.24167 0.724991
f 29/132/30 28/133/30 30/134/30 31/135/30 32/136/30 33/137/30 34/138/30 35/139/30 36/140/30 37/141/30 38/142/30 39/143/30 40/144/30 41/145/30 42/146/30 43/147/30 44/148/30 45/149/30 46/150/30 47/151/30 48/152/30 49/153/30 50/154/30 51/155/30 52/156/30 53/157/30 54/158/30 

